<mxfile host="app.diagrams.net" agent="Mozilla/5.0 (Windows NT 10.0; Win64; x64) AppleWebKit/537.36 (KHTML, like Gecko) Chrome/130.0.0.0 Safari/537.36" version="24.8.6">
  <diagram id="viH2Udzal5_wiuHFk965" name="Pagina-2">
    <mxGraphModel dx="2562" dy="1015" grid="1" gridSize="10" guides="1" tooltips="1" connect="1" arrows="1" fold="1" page="1" pageScale="1" pageWidth="827" pageHeight="1169" math="0" shadow="0">
      <root>
        <mxCell id="0" />
        <mxCell id="1" parent="0" />
        <mxCell id="IFSp3rpa9ERFNmVic4Kc-1" value="Notification service" style="rounded=1;whiteSpace=wrap;html=1;fillColor=#b0e3e6;strokeColor=#0e8088;" vertex="1" parent="1">
          <mxGeometry x="210" y="270" width="120" height="60" as="geometry" />
        </mxCell>
        <mxCell id="IFSp3rpa9ERFNmVic4Kc-6" value="Notification service" style="rounded=1;whiteSpace=wrap;html=1;fillColor=#b0e3e6;strokeColor=#0e8088;" vertex="1" parent="1">
          <mxGeometry x="220" y="280" width="120" height="60" as="geometry" />
        </mxCell>
        <mxCell id="IFSp3rpa9ERFNmVic4Kc-7" value="Notification service" style="rounded=1;whiteSpace=wrap;html=1;fillColor=#b0e3e6;strokeColor=#0e8088;" vertex="1" parent="1">
          <mxGeometry x="230" y="290" width="120" height="60" as="geometry" />
        </mxCell>
        <mxCell id="IFSp3rpa9ERFNmVic4Kc-10" value="Kafka" style="rounded=0;whiteSpace=wrap;html=1;fillColor=#ffe6cc;strokeColor=#d79b00;" vertex="1" parent="1">
          <mxGeometry x="420" y="305" width="100" height="30" as="geometry" />
        </mxCell>
        <mxCell id="IFSp3rpa9ERFNmVic4Kc-11" value="" style="endArrow=classic;html=1;rounded=0;entryX=0;entryY=0.5;entryDx=0;entryDy=0;" edge="1" parent="1" target="IFSp3rpa9ERFNmVic4Kc-10">
          <mxGeometry width="50" height="50" relative="1" as="geometry">
            <mxPoint x="350" y="320" as="sourcePoint" />
            <mxPoint x="470" y="330" as="targetPoint" />
          </mxGeometry>
        </mxCell>
        <mxCell id="IFSp3rpa9ERFNmVic4Kc-12" value="User service" style="rounded=1;whiteSpace=wrap;html=1;fillColor=#e6d0de;strokeColor=#996185;gradientColor=#FF0000;" vertex="1" parent="1">
          <mxGeometry x="210" y="100" width="120" height="60" as="geometry" />
        </mxCell>
        <mxCell id="IFSp3rpa9ERFNmVic4Kc-16" value="User service" style="rounded=1;whiteSpace=wrap;html=1;fillColor=#e6d0de;strokeColor=#996185;gradientColor=#FF0000;" vertex="1" parent="1">
          <mxGeometry x="220" y="110" width="120" height="60" as="geometry" />
        </mxCell>
        <mxCell id="IFSp3rpa9ERFNmVic4Kc-17" value="User service" style="rounded=1;whiteSpace=wrap;html=1;fillColor=#e6d0de;strokeColor=#996185;gradientColor=#FF0000;" vertex="1" parent="1">
          <mxGeometry x="230" y="120" width="120" height="60" as="geometry" />
        </mxCell>
        <mxCell id="IFSp3rpa9ERFNmVic4Kc-19" value="&lt;div&gt;&lt;br&gt;&lt;/div&gt;User&amp;nbsp;&lt;div&gt;DB&lt;/div&gt;" style="strokeWidth=2;html=1;shape=mxgraph.flowchart.database;whiteSpace=wrap;fillColor=#f5f5f5;gradientColor=#b3b3b3;strokeColor=#666666;" vertex="1" parent="1">
          <mxGeometry x="440" y="30" width="60" height="60" as="geometry" />
        </mxCell>
        <mxCell id="IFSp3rpa9ERFNmVic4Kc-20" value="" style="endArrow=classic;html=1;rounded=0;exitX=1;exitY=0.25;exitDx=0;exitDy=0;entryX=0;entryY=0.5;entryDx=0;entryDy=0;entryPerimeter=0;" edge="1" parent="1" source="IFSp3rpa9ERFNmVic4Kc-17" target="IFSp3rpa9ERFNmVic4Kc-19">
          <mxGeometry width="50" height="50" relative="1" as="geometry">
            <mxPoint x="280" y="350" as="sourcePoint" />
            <mxPoint x="420" y="110" as="targetPoint" />
            <Array as="points" />
          </mxGeometry>
        </mxCell>
        <mxCell id="IFSp3rpa9ERFNmVic4Kc-21" value="" style="endArrow=classic;html=1;rounded=0;" edge="1" parent="1" source="IFSp3rpa9ERFNmVic4Kc-17">
          <mxGeometry width="50" height="50" relative="1" as="geometry">
            <mxPoint x="220" y="230" as="sourcePoint" />
            <mxPoint x="290" y="270" as="targetPoint" />
          </mxGeometry>
        </mxCell>
        <mxCell id="IFSp3rpa9ERFNmVic4Kc-22" value="Notification service" style="rounded=1;whiteSpace=wrap;html=1;fillColor=#dae8fc;strokeColor=#6c8ebf;gradientColor=#7ea6e0;" vertex="1" parent="1">
          <mxGeometry x="210" y="440" width="120" height="60" as="geometry" />
        </mxCell>
        <mxCell id="IFSp3rpa9ERFNmVic4Kc-23" value="Notification service" style="rounded=1;whiteSpace=wrap;html=1;fillColor=#dae8fc;strokeColor=#6c8ebf;gradientColor=#7ea6e0;" vertex="1" parent="1">
          <mxGeometry x="220" y="450" width="120" height="60" as="geometry" />
        </mxCell>
        <mxCell id="IFSp3rpa9ERFNmVic4Kc-24" value="Scheduler service" style="rounded=1;whiteSpace=wrap;html=1;fillColor=#dae8fc;strokeColor=#6c8ebf;gradientColor=#7ea6e0;" vertex="1" parent="1">
          <mxGeometry x="230" y="460" width="120" height="60" as="geometry" />
        </mxCell>
        <mxCell id="IFSp3rpa9ERFNmVic4Kc-27" value="" style="endArrow=classic;html=1;rounded=0;entryX=1.004;entryY=0.633;entryDx=0;entryDy=0;entryPerimeter=0;" edge="1" parent="1" source="IFSp3rpa9ERFNmVic4Kc-19" target="IFSp3rpa9ERFNmVic4Kc-17">
          <mxGeometry width="50" height="50" relative="1" as="geometry">
            <mxPoint x="280" y="240" as="sourcePoint" />
            <mxPoint x="330" y="190" as="targetPoint" />
          </mxGeometry>
        </mxCell>
        <mxCell id="IFSp3rpa9ERFNmVic4Kc-28" value="" style="endArrow=classic;html=1;rounded=0;" edge="1" parent="1">
          <mxGeometry width="50" height="50" relative="1" as="geometry">
            <mxPoint x="279.41" y="350" as="sourcePoint" />
            <mxPoint x="279.41" y="440" as="targetPoint" />
          </mxGeometry>
        </mxCell>
        <mxCell id="IFSp3rpa9ERFNmVic4Kc-29" value="&lt;div&gt;&lt;br&gt;&lt;/div&gt;Scheduler&amp;nbsp;&lt;div&gt;&lt;span style=&quot;background-color: initial;&quot;&gt;DB&lt;/span&gt;&lt;/div&gt;" style="strokeWidth=2;html=1;shape=mxgraph.flowchart.database;whiteSpace=wrap;fillColor=#f5f5f5;gradientColor=#b3b3b3;strokeColor=#666666;" vertex="1" parent="1">
          <mxGeometry x="440" y="550" width="60" height="60" as="geometry" />
        </mxCell>
        <mxCell id="IFSp3rpa9ERFNmVic4Kc-30" value="" style="endArrow=classic;html=1;rounded=0;exitX=1;exitY=1;exitDx=0;exitDy=0;entryX=0;entryY=0.5;entryDx=0;entryDy=0;entryPerimeter=0;" edge="1" parent="1" target="IFSp3rpa9ERFNmVic4Kc-29" source="IFSp3rpa9ERFNmVic4Kc-24">
          <mxGeometry width="50" height="50" relative="1" as="geometry">
            <mxPoint x="360" y="145" as="sourcePoint" />
            <mxPoint x="430" y="120" as="targetPoint" />
            <Array as="points" />
          </mxGeometry>
        </mxCell>
        <mxCell id="IFSp3rpa9ERFNmVic4Kc-31" value="" style="endArrow=classic;html=1;rounded=0;" edge="1" parent="1" source="IFSp3rpa9ERFNmVic4Kc-29">
          <mxGeometry width="50" height="50" relative="1" as="geometry">
            <mxPoint x="290" y="250" as="sourcePoint" />
            <mxPoint x="350" y="500" as="targetPoint" />
          </mxGeometry>
        </mxCell>
        <mxCell id="IFSp3rpa9ERFNmVic4Kc-32" value="" style="endArrow=classic;html=1;rounded=0;exitX=1;exitY=0;exitDx=0;exitDy=0;entryX=0;entryY=1;entryDx=0;entryDy=0;" edge="1" parent="1" source="IFSp3rpa9ERFNmVic4Kc-23" target="IFSp3rpa9ERFNmVic4Kc-10">
          <mxGeometry width="50" height="50" relative="1" as="geometry">
            <mxPoint x="430" y="370" as="sourcePoint" />
            <mxPoint x="480" y="320" as="targetPoint" />
          </mxGeometry>
        </mxCell>
        <mxCell id="IFSp3rpa9ERFNmVic4Kc-33" value="SMS" style="ellipse;whiteSpace=wrap;html=1;aspect=fixed;" vertex="1" parent="1">
          <mxGeometry x="590" y="180" width="60" height="60" as="geometry" />
        </mxCell>
        <mxCell id="IFSp3rpa9ERFNmVic4Kc-37" value="Email" style="ellipse;whiteSpace=wrap;html=1;aspect=fixed;" vertex="1" parent="1">
          <mxGeometry x="590" y="290" width="60" height="60" as="geometry" />
        </mxCell>
        <mxCell id="IFSp3rpa9ERFNmVic4Kc-38" value="Other" style="ellipse;whiteSpace=wrap;html=1;aspect=fixed;" vertex="1" parent="1">
          <mxGeometry x="590" y="400" width="60" height="60" as="geometry" />
        </mxCell>
        <mxCell id="IFSp3rpa9ERFNmVic4Kc-39" value="" style="endArrow=classic;html=1;rounded=0;exitX=0;exitY=1;exitDx=0;exitDy=0;entryX=1;entryY=0;entryDx=0;entryDy=0;" edge="1" parent="1" source="IFSp3rpa9ERFNmVic4Kc-33" target="IFSp3rpa9ERFNmVic4Kc-10">
          <mxGeometry width="50" height="50" relative="1" as="geometry">
            <mxPoint x="420" y="340" as="sourcePoint" />
            <mxPoint x="580" y="270" as="targetPoint" />
          </mxGeometry>
        </mxCell>
        <mxCell id="IFSp3rpa9ERFNmVic4Kc-40" value="" style="endArrow=classic;html=1;rounded=0;entryX=1;entryY=0.5;entryDx=0;entryDy=0;exitX=0;exitY=0.5;exitDx=0;exitDy=0;" edge="1" parent="1" source="IFSp3rpa9ERFNmVic4Kc-37" target="IFSp3rpa9ERFNmVic4Kc-10">
          <mxGeometry width="50" height="50" relative="1" as="geometry">
            <mxPoint x="530" y="315" as="sourcePoint" />
            <mxPoint x="600" y="230" as="targetPoint" />
          </mxGeometry>
        </mxCell>
        <mxCell id="IFSp3rpa9ERFNmVic4Kc-41" value="" style="endArrow=classic;html=1;rounded=0;entryX=1;entryY=1;entryDx=0;entryDy=0;exitX=0;exitY=0;exitDx=0;exitDy=0;" edge="1" parent="1" source="IFSp3rpa9ERFNmVic4Kc-38" target="IFSp3rpa9ERFNmVic4Kc-10">
          <mxGeometry width="50" height="50" relative="1" as="geometry">
            <mxPoint x="540" y="325" as="sourcePoint" />
            <mxPoint x="610" y="240" as="targetPoint" />
          </mxGeometry>
        </mxCell>
        <mxCell id="IFSp3rpa9ERFNmVic4Kc-42" value="" style="endArrow=classic;html=1;rounded=0;exitX=0.5;exitY=0;exitDx=0;exitDy=0;entryX=0.336;entryY=0.959;entryDx=0;entryDy=0;entryPerimeter=0;" edge="1" parent="1" source="IFSp3rpa9ERFNmVic4Kc-1" target="IFSp3rpa9ERFNmVic4Kc-17">
          <mxGeometry width="50" height="50" relative="1" as="geometry">
            <mxPoint x="160" y="250" as="sourcePoint" />
            <mxPoint x="210" y="200" as="targetPoint" />
          </mxGeometry>
        </mxCell>
        <mxCell id="IFSp3rpa9ERFNmVic4Kc-43" value="" style="endArrow=classic;html=1;rounded=0;exitX=1;exitY=0.5;exitDx=0;exitDy=0;" edge="1" parent="1" source="IFSp3rpa9ERFNmVic4Kc-37">
          <mxGeometry width="50" height="50" relative="1" as="geometry">
            <mxPoint x="550" y="330" as="sourcePoint" />
            <mxPoint x="760" y="320" as="targetPoint" />
          </mxGeometry>
        </mxCell>
        <mxCell id="IFSp3rpa9ERFNmVic4Kc-44" value="Recipient" style="shape=umlActor;verticalLabelPosition=bottom;verticalAlign=top;html=1;outlineConnect=0;" vertex="1" parent="1">
          <mxGeometry x="767" y="290" width="30" height="60" as="geometry" />
        </mxCell>
        <mxCell id="IFSp3rpa9ERFNmVic4Kc-48" value="" style="endArrow=classic;html=1;rounded=0;exitX=1;exitY=0;exitDx=0;exitDy=0;" edge="1" parent="1" source="IFSp3rpa9ERFNmVic4Kc-38">
          <mxGeometry width="50" height="50" relative="1" as="geometry">
            <mxPoint x="550" y="400" as="sourcePoint" />
            <mxPoint x="760" y="350" as="targetPoint" />
          </mxGeometry>
        </mxCell>
        <mxCell id="IFSp3rpa9ERFNmVic4Kc-49" value="" style="endArrow=classic;html=1;rounded=0;exitX=1;exitY=1;exitDx=0;exitDy=0;" edge="1" parent="1" source="IFSp3rpa9ERFNmVic4Kc-33">
          <mxGeometry width="50" height="50" relative="1" as="geometry">
            <mxPoint x="550" y="400" as="sourcePoint" />
            <mxPoint x="760" y="290" as="targetPoint" />
          </mxGeometry>
        </mxCell>
        <mxCell id="lkrw_u_uPZJuJ1lycvp1-1" value="Company service" style="rounded=1;whiteSpace=wrap;html=1;fillColor=#d5e8d4;strokeColor=#82b366;gradientColor=#97d077;" vertex="1" parent="1">
          <mxGeometry x="-60" y="270" width="120" height="60" as="geometry" />
        </mxCell>
        <mxCell id="lkrw_u_uPZJuJ1lycvp1-4" value="Company service" style="rounded=1;whiteSpace=wrap;html=1;fillColor=#d5e8d4;strokeColor=#82b366;gradientColor=#97d077;" vertex="1" parent="1">
          <mxGeometry x="-50" y="280" width="120" height="60" as="geometry" />
        </mxCell>
        <mxCell id="lkrw_u_uPZJuJ1lycvp1-5" value="Company service" style="rounded=1;whiteSpace=wrap;html=1;fillColor=#d5e8d4;strokeColor=#82b366;gradientColor=#97d077;" vertex="1" parent="1">
          <mxGeometry x="-40" y="290" width="120" height="60" as="geometry" />
        </mxCell>
        <mxCell id="lkrw_u_uPZJuJ1lycvp1-10" value="Product service" style="rounded=1;whiteSpace=wrap;html=1;fillColor=#e1d5e7;strokeColor=#9673a6;" vertex="1" parent="1">
          <mxGeometry x="-340" y="270" width="120" height="60" as="geometry" />
        </mxCell>
        <mxCell id="lkrw_u_uPZJuJ1lycvp1-12" value="Product service" style="rounded=1;whiteSpace=wrap;html=1;fillColor=#e1d5e7;strokeColor=#9673a6;" vertex="1" parent="1">
          <mxGeometry x="-330" y="280" width="120" height="60" as="geometry" />
        </mxCell>
        <mxCell id="lkrw_u_uPZJuJ1lycvp1-13" value="Product service" style="rounded=1;whiteSpace=wrap;html=1;fillColor=#e1d5e7;strokeColor=#9673a6;" vertex="1" parent="1">
          <mxGeometry x="-320" y="290" width="120" height="60" as="geometry" />
        </mxCell>
        <mxCell id="lkrw_u_uPZJuJ1lycvp1-14" value="" style="endArrow=classic;html=1;rounded=0;exitX=1;exitY=0.5;exitDx=0;exitDy=0;entryX=0;entryY=0.638;entryDx=0;entryDy=0;entryPerimeter=0;" edge="1" parent="1" source="lkrw_u_uPZJuJ1lycvp1-5" target="IFSp3rpa9ERFNmVic4Kc-6">
          <mxGeometry width="50" height="50" relative="1" as="geometry">
            <mxPoint x="-40" y="360" as="sourcePoint" />
            <mxPoint x="10" y="310" as="targetPoint" />
          </mxGeometry>
        </mxCell>
        <mxCell id="lkrw_u_uPZJuJ1lycvp1-16" value="" style="endArrow=classic;html=1;rounded=0;exitX=0;exitY=0.75;exitDx=0;exitDy=0;entryX=1;entryY=0;entryDx=0;entryDy=0;" edge="1" parent="1">
          <mxGeometry width="50" height="50" relative="1" as="geometry">
            <mxPoint x="220" y="170" as="sourcePoint" />
            <mxPoint x="80" y="305" as="targetPoint" />
          </mxGeometry>
        </mxCell>
        <mxCell id="lkrw_u_uPZJuJ1lycvp1-19" value="" style="endArrow=classic;html=1;rounded=0;exitX=1;exitY=0;exitDx=0;exitDy=0;entryX=0;entryY=0.75;entryDx=0;entryDy=0;" edge="1" parent="1">
          <mxGeometry width="50" height="50" relative="1" as="geometry">
            <mxPoint x="70" y="290" as="sourcePoint" />
            <mxPoint x="210" y="155" as="targetPoint" />
          </mxGeometry>
        </mxCell>
        <mxCell id="lkrw_u_uPZJuJ1lycvp1-20" value="Order service" style="rounded=1;whiteSpace=wrap;html=1;fillColor=#ffff88;strokeColor=#36393d;" vertex="1" parent="1">
          <mxGeometry x="-60" y="100" width="120" height="60" as="geometry" />
        </mxCell>
        <mxCell id="lkrw_u_uPZJuJ1lycvp1-23" value="Order service" style="rounded=1;whiteSpace=wrap;html=1;fillColor=#ffff88;strokeColor=#36393d;" vertex="1" parent="1">
          <mxGeometry x="-50" y="110" width="120" height="60" as="geometry" />
        </mxCell>
        <mxCell id="lkrw_u_uPZJuJ1lycvp1-24" value="Order service" style="rounded=1;whiteSpace=wrap;html=1;fillColor=#ffff88;strokeColor=#36393d;" vertex="1" parent="1">
          <mxGeometry x="-40" y="120" width="120" height="60" as="geometry" />
        </mxCell>
        <mxCell id="lkrw_u_uPZJuJ1lycvp1-25" value="" style="endArrow=classic;html=1;rounded=0;entryX=0.017;entryY=0.633;entryDx=0;entryDy=0;entryPerimeter=0;" edge="1" parent="1" target="lkrw_u_uPZJuJ1lycvp1-1">
          <mxGeometry width="50" height="50" relative="1" as="geometry">
            <mxPoint x="-200" y="308" as="sourcePoint" />
            <mxPoint x="20" y="220" as="targetPoint" />
          </mxGeometry>
        </mxCell>
        <mxCell id="lkrw_u_uPZJuJ1lycvp1-26" value="" style="endArrow=classic;html=1;rounded=0;entryX=0.99;entryY=0.667;entryDx=0;entryDy=0;entryPerimeter=0;exitX=0;exitY=1;exitDx=0;exitDy=0;" edge="1" parent="1" source="lkrw_u_uPZJuJ1lycvp1-1" target="lkrw_u_uPZJuJ1lycvp1-13">
          <mxGeometry width="50" height="50" relative="1" as="geometry">
            <mxPoint x="-200" y="318" as="sourcePoint" />
            <mxPoint x="-58" y="318" as="targetPoint" />
          </mxGeometry>
        </mxCell>
        <mxCell id="lkrw_u_uPZJuJ1lycvp1-27" value="" style="endArrow=classic;html=1;rounded=0;exitX=1.004;exitY=0.172;exitDx=0;exitDy=0;exitPerimeter=0;" edge="1" parent="1" source="lkrw_u_uPZJuJ1lycvp1-24">
          <mxGeometry width="50" height="50" relative="1" as="geometry">
            <mxPoint x="-58.319999999999936" y="130.56" as="sourcePoint" />
            <mxPoint x="210" y="129.44" as="targetPoint" />
          </mxGeometry>
        </mxCell>
        <mxCell id="lkrw_u_uPZJuJ1lycvp1-28" value="" style="endArrow=classic;html=1;rounded=0;exitX=0;exitY=1;exitDx=0;exitDy=0;entryX=1;entryY=0.5;entryDx=0;entryDy=0;" edge="1" parent="1" target="lkrw_u_uPZJuJ1lycvp1-24">
          <mxGeometry width="50" height="50" relative="1" as="geometry">
            <mxPoint x="210" y="150.14" as="sourcePoint" />
            <mxPoint x="-60.960000000000036" y="149.5" as="targetPoint" />
          </mxGeometry>
        </mxCell>
        <mxCell id="lkrw_u_uPZJuJ1lycvp1-29" value="" style="endArrow=classic;html=1;rounded=0;exitX=1;exitY=0;exitDx=0;exitDy=0;entryX=0;entryY=1;entryDx=0;entryDy=0;" edge="1" parent="1" source="lkrw_u_uPZJuJ1lycvp1-12" target="lkrw_u_uPZJuJ1lycvp1-24">
          <mxGeometry width="50" height="50" relative="1" as="geometry">
            <mxPoint x="-50" y="290" as="sourcePoint" />
            <mxPoint y="240" as="targetPoint" />
          </mxGeometry>
        </mxCell>
        <mxCell id="lkrw_u_uPZJuJ1lycvp1-30" value="" style="endArrow=classic;html=1;rounded=0;entryX=1;entryY=0;entryDx=0;entryDy=0;exitX=0;exitY=1;exitDx=0;exitDy=0;" edge="1" parent="1" source="lkrw_u_uPZJuJ1lycvp1-23" target="lkrw_u_uPZJuJ1lycvp1-10">
          <mxGeometry width="50" height="50" relative="1" as="geometry">
            <mxPoint x="-90" y="240" as="sourcePoint" />
            <mxPoint x="-40" y="190" as="targetPoint" />
          </mxGeometry>
        </mxCell>
        <mxCell id="lkrw_u_uPZJuJ1lycvp1-31" value="" style="endArrow=classic;html=1;rounded=0;exitX=0;exitY=0;exitDx=0;exitDy=0;" edge="1" parent="1">
          <mxGeometry width="50" height="50" relative="1" as="geometry">
            <mxPoint x="10" y="270" as="sourcePoint" />
            <mxPoint x="10" y="180" as="targetPoint" />
          </mxGeometry>
        </mxCell>
        <mxCell id="lkrw_u_uPZJuJ1lycvp1-32" value="" style="endArrow=classic;html=1;rounded=0;entryX=0.75;entryY=0;entryDx=0;entryDy=0;exitX=0.583;exitY=1;exitDx=0;exitDy=0;exitPerimeter=0;" edge="1" parent="1" source="lkrw_u_uPZJuJ1lycvp1-24" target="lkrw_u_uPZJuJ1lycvp1-1">
          <mxGeometry width="50" height="50" relative="1" as="geometry">
            <mxPoint x="30" y="190" as="sourcePoint" />
            <mxPoint x="30" y="260" as="targetPoint" />
          </mxGeometry>
        </mxCell>
        <mxCell id="lkrw_u_uPZJuJ1lycvp1-35" value="&lt;div&gt;&lt;br&gt;&lt;/div&gt;Company&amp;nbsp;&lt;div&gt;DB&lt;/div&gt;" style="strokeWidth=2;html=1;shape=mxgraph.flowchart.database;whiteSpace=wrap;fillColor=#f5f5f5;gradientColor=#b3b3b3;strokeColor=#666666;" vertex="1" parent="1">
          <mxGeometry x="-10" y="430" width="60" height="60" as="geometry" />
        </mxCell>
        <mxCell id="lkrw_u_uPZJuJ1lycvp1-36" value="" style="endArrow=classic;html=1;rounded=0;exitX=0.324;exitY=0.04;exitDx=0;exitDy=0;entryX=0.407;entryY=1.021;entryDx=0;entryDy=0;entryPerimeter=0;exitPerimeter=0;" edge="1" parent="1" target="lkrw_u_uPZJuJ1lycvp1-5" source="lkrw_u_uPZJuJ1lycvp1-35">
          <mxGeometry width="50" height="50" relative="1" as="geometry">
            <mxPoint x="-100" y="487" as="sourcePoint" />
            <mxPoint x="-30" y="462" as="targetPoint" />
            <Array as="points" />
          </mxGeometry>
        </mxCell>
        <mxCell id="lkrw_u_uPZJuJ1lycvp1-37" value="" style="endArrow=classic;html=1;rounded=0;entryX=0.665;entryY=0.012;entryDx=0;entryDy=0;entryPerimeter=0;exitX=0.583;exitY=1;exitDx=0;exitDy=0;exitPerimeter=0;" edge="1" parent="1" source="lkrw_u_uPZJuJ1lycvp1-5" target="lkrw_u_uPZJuJ1lycvp1-35">
          <mxGeometry width="50" height="50" relative="1" as="geometry">
            <mxPoint x="30" y="360" as="sourcePoint" />
            <mxPoint x="-100" y="510" as="targetPoint" />
          </mxGeometry>
        </mxCell>
        <mxCell id="lkrw_u_uPZJuJ1lycvp1-38" value="&lt;div&gt;&lt;br&gt;&lt;/div&gt;Product&amp;nbsp;&lt;div&gt;DB&lt;/div&gt;" style="strokeWidth=2;html=1;shape=mxgraph.flowchart.database;whiteSpace=wrap;fillColor=#f5f5f5;gradientColor=#b3b3b3;strokeColor=#666666;" vertex="1" parent="1">
          <mxGeometry x="-290" y="430" width="60" height="60" as="geometry" />
        </mxCell>
        <mxCell id="lkrw_u_uPZJuJ1lycvp1-39" value="" style="endArrow=classic;html=1;rounded=0;exitX=0.324;exitY=0.04;exitDx=0;exitDy=0;entryX=0.407;entryY=1.021;entryDx=0;entryDy=0;entryPerimeter=0;exitPerimeter=0;" edge="1" parent="1" source="lkrw_u_uPZJuJ1lycvp1-38">
          <mxGeometry width="50" height="50" relative="1" as="geometry">
            <mxPoint x="-380" y="485" as="sourcePoint" />
            <mxPoint x="-271" y="349" as="targetPoint" />
            <Array as="points" />
          </mxGeometry>
        </mxCell>
        <mxCell id="lkrw_u_uPZJuJ1lycvp1-40" value="" style="endArrow=classic;html=1;rounded=0;entryX=0.665;entryY=0.012;entryDx=0;entryDy=0;entryPerimeter=0;exitX=0.583;exitY=1;exitDx=0;exitDy=0;exitPerimeter=0;" edge="1" parent="1" target="lkrw_u_uPZJuJ1lycvp1-38">
          <mxGeometry width="50" height="50" relative="1" as="geometry">
            <mxPoint x="-250" y="348" as="sourcePoint" />
            <mxPoint x="-380" y="508" as="targetPoint" />
          </mxGeometry>
        </mxCell>
        <mxCell id="lkrw_u_uPZJuJ1lycvp1-52" value="" style="endArrow=classic;html=1;rounded=0;exitX=1;exitY=1;exitDx=0;exitDy=0;entryX=0;entryY=0;entryDx=0;entryDy=0;" edge="1" parent="1" source="lkrw_u_uPZJuJ1lycvp1-24" target="IFSp3rpa9ERFNmVic4Kc-1">
          <mxGeometry width="50" height="50" relative="1" as="geometry">
            <mxPoint x="70" y="360" as="sourcePoint" />
            <mxPoint x="120" y="310" as="targetPoint" />
          </mxGeometry>
        </mxCell>
        <mxCell id="lkrw_u_uPZJuJ1lycvp1-53" value="" style="endArrow=classic;html=1;rounded=0;entryX=0;entryY=1;entryDx=0;entryDy=0;exitX=0;exitY=0.75;exitDx=0;exitDy=0;" edge="1" parent="1" source="lkrw_u_uPZJuJ1lycvp1-13" target="IFSp3rpa9ERFNmVic4Kc-7">
          <mxGeometry width="50" height="50" relative="1" as="geometry">
            <mxPoint x="-330" y="360" as="sourcePoint" />
            <mxPoint x="120" y="450" as="targetPoint" />
            <Array as="points">
              <mxPoint x="-330" y="380" />
              <mxPoint x="-330" y="520" />
              <mxPoint x="120" y="520" />
            </Array>
          </mxGeometry>
        </mxCell>
        <mxCell id="lkrw_u_uPZJuJ1lycvp1-54" value="&lt;div&gt;&lt;br&gt;&lt;/div&gt;Order&amp;nbsp;&lt;div&gt;DB&lt;/div&gt;" style="strokeWidth=2;html=1;shape=mxgraph.flowchart.database;whiteSpace=wrap;fillColor=#f5f5f5;gradientColor=#b3b3b3;strokeColor=#666666;" vertex="1" parent="1">
          <mxGeometry x="-290" y="112" width="60" height="60" as="geometry" />
        </mxCell>
        <mxCell id="lkrw_u_uPZJuJ1lycvp1-55" value="" style="endArrow=classic;html=1;rounded=0;exitX=0.981;exitY=0.27;exitDx=0;exitDy=0;entryX=0;entryY=0.5;entryDx=0;entryDy=0;exitPerimeter=0;" edge="1" parent="1">
          <mxGeometry width="50" height="50" relative="1" as="geometry">
            <mxPoint x="-231.1400000000001" y="129.1" as="sourcePoint" />
            <mxPoint x="-60" y="130.90000000000006" as="targetPoint" />
            <Array as="points" />
          </mxGeometry>
        </mxCell>
        <mxCell id="lkrw_u_uPZJuJ1lycvp1-56" value="" style="endArrow=classic;html=1;rounded=0;exitX=-0.007;exitY=0.829;exitDx=0;exitDy=0;exitPerimeter=0;" edge="1" parent="1" source="lkrw_u_uPZJuJ1lycvp1-20">
          <mxGeometry width="50" height="50" relative="1" as="geometry">
            <mxPoint x="-70" y="149.69000000000005" as="sourcePoint" />
            <mxPoint x="-230" y="149.69" as="targetPoint" />
          </mxGeometry>
        </mxCell>
      </root>
    </mxGraphModel>
  </diagram>
</mxfile>
